<svg xmlns="http://www.w3.org/2000/svg" width="28.284" height="28.284" viewBox="0 0 28.284 28.284">
  <g id="Shape" transform="translate(0 14.142) rotate(45)" fill="#fff" stroke-linecap="round" stroke-linejoin="round" stroke-miterlimit="10">
    <path d="M 5.046170711517334 -0.9999999403953552 L 5.035910606384277 -1.000049948692322 L 5.030990600585938 -1.000099897384644 L 5.02608060836792 -1.000099897384644 L 2.009300708770752 -1.000099897384644 C 1.726740717887878 -1.000369906425476 1.454640746116638 -1.120239973068237 1.263700723648071 -1.32898998260498 C 1.07480800151825 -1.53550386428833 0.9801869988441467 -1.812989950180054 1.00352942943573 -2.091221332550049 C 1.316560506820679 -5.019345760345459 2.329847097396851 -7.873177051544189 3.934130668640137 -10.34471988677979 L 3.936520576477051 -10.3484001159668 L 3.938870668411255 -10.35210037231445 C 5.394210815429688 -12.63784027099609 7.374090671539307 -14.61376953125 9.664470672607422 -16.06629943847656 L 9.668370246887207 -16.06876945495605 L 9.672240257263184 -16.07127952575684 C 12.13724803924561 -17.66666030883789 14.98373126983643 -18.67808151245117 17.90440940856934 -18.99652862548828 C 17.93226051330566 -18.99883460998535 17.96043968200684 -19 17.98830032348633 -19 C 18.24239158630371 -19 18.48539161682129 -18.9056396484375 18.67253112792969 -18.73428916931152 C 18.88140106201172 -18.54306030273438 19.00053024291992 -18.27129936218262 18.99938011169434 -17.98871040344238 L 18.99937057495117 -14.97383975982666 L 18.99937057495117 -14.96140956878662 L 18.99968147277832 -14.94898986816406 C 19.01235771179199 -14.43910026550293 18.64058876037598 -14.00058841705322 18.13426208496094 -13.92732238769531 C 17.09743690490723 -13.79046535491943 16.07495307922363 -13.53606033325195 15.09503078460693 -13.17111968994141 C 14.97836875915527 -13.12736034393311 14.85862350463867 -13.10558986663818 14.7368745803833 -13.10558986663818 C 14.73684501647949 -13.10558986663818 14.73682022094727 -13.10558986663818 14.73679065704346 -13.10558986663818 C 14.46893882751465 -13.10560989379883 14.21668720245361 -13.20866584777832 14.02622985839844 -13.39582538604736 L 12.75154113769531 -14.66800022125244 L 12.2131404876709 -15.20534038543701 L 11.55158042907715 -14.82991981506348 C 8.87876033782959 -13.31313037872314 6.662600517272949 -11.1013298034668 5.142690658569336 -8.433629989624023 L 4.76469087600708 -7.770179748535156 L 5.305150508880615 -7.230780124664307 L 6.580258846282959 -5.958197593688965 C 6.854605197906494 -5.679765224456787 6.942992210388184 -5.264287948608398 6.805360794067383 -4.898890018463135 C 6.438823223114014 -3.918548345565796 6.18384838104248 -2.897941827774048 6.046647071838379 -1.863012790679932 C 5.975143432617188 -1.370767116546631 5.545669078826904 -0.9999999403953552 5.046170711517334 -0.9999999403953552 Z" stroke="none"/>
    <path d="M 17.98986625671387 -17.99990463256836 C 15.23145484924316 -17.69550895690918 12.54387664794922 -16.73866844177246 10.21558094024658 -15.23176956176758 C 10.21041107177734 -15.22842025756836 10.20523071289062 -15.22509956359863 10.20003032684326 -15.22179985046387 C 8.032811164855957 -13.84737968444824 6.159420967102051 -11.97774028778076 4.782401084899902 -9.815019607543945 C 4.779260635375977 -9.810090065002441 4.776101112365723 -9.805170059204102 4.772920608520508 -9.800259590148926 C 3.257305145263672 -7.465324401855469 2.298715591430664 -4.769906044006348 1.999912261962891 -2.004047393798828 L 2.001609802246094 -2.003889083862305 C 2.003280639648438 -2.002059936523438 2.006681442260742 -2.000099182128906 2.009300231933594 -2.000099182128906 L 5.026081085205078 -2.000099182128906 C 5.033101081848145 -2.000099182128906 5.039150238037109 -2.000070571899414 5.046170234680176 -2 C 5.051067352294922 -2 5.054692268371582 -2.001806259155273 5.056930541992188 -2.006534576416016 C 5.204408645629883 -3.111930847167969 5.477218627929688 -4.202070236206055 5.867840766906738 -5.246829986572266 C 5.868396759033203 -5.248329162597656 5.867385864257812 -5.254746437072754 5.867929458618164 -5.256316184997559 L 4.598751068115234 -6.522970199584961 C 3.960519790649414 -7.159930229187012 3.82744026184082 -8.145199775695801 4.273820877075195 -8.92866039276123 C 5.882790565490723 -11.7526798248291 8.228731155395508 -14.09404945373535 11.05803108215332 -15.69962978363037 C 11.36686897277832 -15.87489223480225 11.70687007904053 -15.96024513244629 12.04449081420898 -15.96024513244629 C 12.56156253814697 -15.96024513244629 13.072998046875 -15.75999450683594 13.45794105529785 -15.37582015991211 L 14.72767162322998 -14.10860443115234 C 14.73071479797363 -14.10599708557129 14.73460388183594 -14.10558986663818 14.73673057556152 -14.10558986663818 L 14.74604034423828 -14.10824966430664 C 15.79295253753662 -14.49813461303711 16.88520431518555 -14.77031326293945 17.99281120300293 -14.91732406616211 C 17.99533462524414 -14.91788864135742 17.99840354919434 -14.91930389404297 17.99999046325684 -14.92412948608398 C 17.99958038330078 -14.94070053100586 17.99937057495117 -14.9572696685791 17.99937057495117 -14.97383975982666 L 17.99937057495117 -17.98464012145996 C 17.99937057495117 -17.98735046386719 17.99719047546387 -17.99406051635742 17.99720001220703 -17.99676895141602 C 17.99508857727051 -17.99870300292969 17.99225044250488 -17.99962615966797 17.98986625671387 -17.99990463256836 M 17.9882984161377 -20.00000381469727 C 18.4895133972168 -20.00000381469727 18.97528076171875 -19.81294631958008 19.34782028198242 -19.47183990478516 C 19.76512145996094 -19.08976936340332 20.00167083740234 -18.54981994628906 19.99937057495117 -17.98464012145996 L 19.99937057495117 -14.97383975982666 C 20.02470016479492 -13.95496940612793 19.28094100952148 -13.07889938354492 18.26975059509277 -12.93653011322021 C 17.3043098449707 -12.80945014953613 16.35638046264648 -12.57377052307129 15.44403076171875 -12.23399925231934 C 15.21368217468262 -12.14758491516113 14.97426605224609 -12.1055908203125 14.73673439025879 -12.1055908203125 C 14.21638488769531 -12.1055908203125 13.70555114746094 -12.30732154846191 13.32223129272461 -12.68562984466553 L 12.04513072967529 -13.9601993560791 C 9.527570724487305 -12.53151988983154 7.443080902099609 -10.45114994049072 6.011560440063477 -7.938590049743652 L 7.288670539855957 -6.664019584655762 C 7.840750694274902 -6.106820106506348 8.017460823059082 -5.279919624328613 7.741180419921875 -4.546409606933594 C 7.400740623474121 -3.635869979858398 7.164600372314453 -2.6898193359375 7.037270545959473 -1.726289749145508 C 6.89691162109375 -0.7352561950683594 6.047023773193359 -1.9073486328125e-06 5.046175003051758 -1.9073486328125e-06 C 5.039533615112305 -1.9073486328125e-06 5.032734870910645 -3.4332275390625e-05 5.026081085205078 -9.918212890625e-05 L 2.009300231933594 -9.918212890625e-05 C 1.44474983215332 -0.000629425048828125 0.9064197540283203 -0.2379398345947266 0.5258102416992188 -0.6540699005126953 C 0.1452007293701172 -1.0701904296875 -0.04263877868652344 -1.626810073852539 0.00817108154296875 -2.187950134277344 C 0.3382511138916016 -5.290080070495605 1.395870208740234 -8.270990371704102 3.095340728759766 -10.88918018341064 C 4.639270782470703 -13.31404972076416 6.699220657348633 -15.3699197769165 9.128900527954102 -16.91078948974609 C 11.74043083190918 -18.60099983215332 14.71280097961426 -19.65628051757812 17.80718040466309 -19.99184989929199 C 17.8676643371582 -19.99730491638184 17.92809104919434 -20.00000381469727 17.9882984161377 -20.00000381469727 Z" stroke="none" fill="#fff"/>
  </g>
</svg>
